<svg width="800" height="600" viewBox="0 0 800 600" fill="none" xmlns="http://www.w3.org/2000/svg">
  <rect width="800" height="600" rx="48" fill="#F7F8F3"/>
  <rect x="52" y="52" width="696" height="496" rx="32" fill="#FFFDF8" stroke="#D8E2D0" stroke-width="4"/>
  <rect x="130" y="120" width="540" height="360" rx="24" fill="#F2F7EE" stroke="#D5E1CD" stroke-width="4"/>
  <g opacity="0.95">
    <rect x="150" y="140" width="120" height="96" rx="16" fill="#FBE58E"/>
    <rect x="278" y="140" width="120" height="96" rx="16" fill="#F7A9A9"/>
    <rect x="406" y="140" width="120" height="96" rx="16" fill="#C8F1D1"/>
    <rect x="534" y="140" width="120" height="96" rx="16" fill="#D9E2FF"/>
    <rect x="150" y="244" width="120" height="96" rx="16" fill="#D9E2FF"/>
    <rect x="278" y="244" width="120" height="96" rx="16" fill="#C8F1D1"/>
    <rect x="406" y="244" width="120" height="96" rx="16" fill="#FFF4C8"/>
    <rect x="534" y="244" width="120" height="96" rx="16" fill="#F7A9A9"/>
    <rect x="150" y="348" width="120" height="96" rx="16" fill="#F2C6E8"/>
    <rect x="278" y="348" width="120" height="96" rx="16" fill="#F9DEB0"/>
    <rect x="406" y="348" width="120" height="96" rx="16" fill="#D9E2FF"/>
    <rect x="534" y="348" width="120" height="96" rx="16" fill="#C8F1D1"/>
  </g>
  <circle cx="400" cy="300" r="74" fill="#FFFFFF" stroke="#A6B5DD" stroke-width="8"/>
  <path d="M400 264C380 264 364 280 364 300C364 320 380 336 400 336C420 336 436 320 436 300C436 280 420 264 400 264Z" fill="#6C90FF"/>
  <path d="M448 352L476 380" stroke="#6C90FF" stroke-width="16" stroke-linecap="round"/>
  <text x="400" y="516" text-anchor="middle" font-family="Inter, Arial, sans-serif" font-size="24" font-weight="700" fill="#6F7E78">Reveal the picture</text>
</svg>
